<?xml version="1.0" encoding="utf-8"?>
<!-- Generator: Adobe Illustrator 19.0.0, SVG Export Plug-In . SVG Version: 6.00 Build 0)  -->
<svg version="1.1" id="Layer_1" xmlns="http://www.w3.org/2000/svg" xmlns:xlink="http://www.w3.org/1999/xlink" x="0px" y="0px"
	 viewBox="0 0 300 300" style="enable-background:new 0 0 300 300;" xml:space="preserve">
<g id="XMLID_1_">
	<g id="XMLID_62_">
		<path id="XMLID_66_" d="M25.1,262.1c-4.1-24.5-7.4-49.2-8.6-74.1c-1.2-24.2,1.6-47,11.5-69.1c17.3-39.2,42.3-74,72.8-102.3
			c4.5-4.3-2.1-11.3-6.6-7.2C69.4,32.6,48,60,31.3,90.5c-8.5,15.5-16.7,32-20.7,49.6c-4.3,18.6-4.2,37.9-2.8,56.8
			c1.7,22.7,4.6,45.2,8.3,67.7C17.1,271,26.2,268.4,25.1,262.1L25.1,262.1z"/>
	</g>
</g>
<g id="XMLID_2_">
	<g id="XMLID_56_">
		<path id="XMLID_60_" d="M16.1,264.1c0.9,5.9,3.4,12.6,9.4,13.8c6.6,1.4,10.9-4.6,13.2-10.4C46,248.8,51.4,229,58,209.9
			c3.5-9.8,6.8-19.7,10.8-29.4c3.6-8.9,8.1-17.5,11.6-26.5c7.2-18.5,10.7-38.3,16.1-57.4C103,74,111.2,52,120.8,30.8
			c2.7-5.8-5.3-10.9-8-5c-9,20-16.9,40.4-23.3,61.6c-6.6,21.7-10.2,45-18.9,65.9c-4.1,9.7-8.7,18.8-12.5,28.6
			c-4.1,10.6-7.8,21.4-11.5,32c-3.8,10.9-7.5,21.9-11.1,32.8c-1.7,5.3-3.2,10.7-5.2,15.8c-0.6,1.4-1.6,5.8-3.8,4.8
			c-1.2-0.5-1.5-4.9-1.6-6C24,255,15,257.7,16.1,264.1L16.1,264.1z"/>
	</g>
</g>
<g id="XMLID_3_">
	<g id="XMLID_50_">
		<path id="XMLID_54_" d="M95.2,17.5c8.6,4.9,18.3,10.4,25.1,18.1c7,7.8,9.7,19.8,11.2,30.3c3.1,21.6-0.3,43.7-4.3,64.8
			c-1.2,6.3,7.8,9,8.9,2.6c4.4-23.7,8-48.2,3.9-72.4c-1.9-10.8-5.2-22.7-12.1-31c-7.4-9.2-18.5-15.6-28.4-21.1
			C94.6,5.8,89.9,14.5,95.2,17.5L95.2,17.5z"/>
	</g>
</g>
<g id="XMLID_4_">
	<g id="XMLID_44_">
		<path id="XMLID_48_" d="M108.9,47.4c6.5,23.4,10.5,49.1,6.5,73.1c-0.8,4.8,5.9,6.8,6.7,2c4.2-25.4,1.6-55.8-5.3-80.4
			c-1.3-4.6-6.7,1.9-5.4,6.7L108.9,47.4z"/>
	</g>
</g>
<g id="XMLID_9_">
	<g id="XMLID_38_">
		<path id="XMLID_42_" d="M286.6,266.7c3.2-19.7,5.9-39.7,7.8-59.7c1.7-19,2.5-38.2-0.6-57c-3-18.2-10.7-35-18.9-51
			c-8-15.3-17-29.9-27.2-43.7c-11.7-16-24.8-30.5-39.1-43.7c-4.5-4.1-11.1,2.9-6.6,7.2C232.5,47,257.5,81.8,274.9,121
			c9.9,22,12.5,44.8,11.5,69.1c-1.2,24.9-4.6,49.6-8.6,74.1C276.6,270.4,285.6,273,286.6,266.7L286.6,266.7z"/>
	</g>
</g>
<g id="XMLID_7_">
	<g id="XMLID_32_">
		<path id="XMLID_36_" d="M277.6,263.5c-0.2,1.1-0.5,5.5-1.6,6c-2.2,1-3.2-3.3-3.8-4.8c-2-5.2-3.5-10.7-5.2-15.8
			c-3.5-10.6-7.1-21.1-10.7-31.7c-3.8-11.1-7.6-22.2-11.8-33.2c-3.7-9.8-8.5-19.1-12.5-28.6c-8.6-20.6-12.2-43.5-18.5-64.8
			c-6.5-21.5-14.5-42.5-23.6-62.7c-2.7-5.8-10.7-0.8-8,5c8.6,18.8,16,38.2,22,58c5.8,19,9.5,38.8,15.8,57.7
			c3,8.9,6.8,17.2,10.8,25.8c4.4,9.7,8,19.7,11.6,29.8c7,19.5,13.6,39.1,19.9,58.8c2.2,6.8,4.9,16.6,12.9,17.2
			c7.4,0.6,10.9-7.3,11.9-13.9C287.6,259.8,278.7,257.2,277.6,263.5L277.6,263.5z"/>
	</g>
</g>
<g id="XMLID_6_">
	<g id="XMLID_26_">
		<path id="XMLID_30_" d="M202.8,11c-9.6,5.4-20.2,11.7-27.7,20.3c-7.3,8.4-10.8,20.7-12.6,31.8c-4.2,24.1-0.5,48.6,3.9,72.4
			c1.2,6.3,10.1,3.6,8.9-2.6c-3.9-21.1-7.4-43.2-4.3-64.8c1.5-10,4.2-21.9,10.7-29.5c6.8-8,17-13.8,25.8-18.8
			C212.8,16.6,208,7.9,202.8,11L202.8,11z"/>
	</g>
</g>
<g id="XMLID_5_">
	<g id="XMLID_20_">
		<path id="XMLID_24_" d="M187,46.8c-6.8,24.6-8.1,50.4-4.1,75.7c0.8,4.8,7.5,2.8,6.7-2c-3.9-24-2.4-48.4,4.1-71.7
			C195,44,188.2,42.1,187,46.8L187,46.8z"/>
	</g>
</g>
</svg>
